<?xml version="1.0" encoding="UTF-8"?>
<svg id="Layer_1" data-name="Layer 1" xmlns="http://www.w3.org/2000/svg" viewBox="0 0 916 1024">
  <defs>
    <style>
      .cls-1 {
        fill: #231f20;
      }
    </style>
  </defs>
  <path class="cls-1" d="M570.214,899.851h0c-16.35,36.253-27.157,75.594-31.297,116.851l345.99-73.549c16.35-36.245,27.149-75.594,31.297-116.851l-345.99,73.549Z"/>
  <path class="cls-1" d="M884.906,676.107c16.35-36.245,27.157-75.594,31.297-116.851l-269.515,57.321v-110.193l238.21-50.622c16.35-36.245,27.157-75.594,31.297-116.851l-269.515,57.272V0c-41.298,23.188-77.974,54.053-107.788,90.461V419.205l-107.788,22.911V-64c-41.298,23.18-77.974,54.053-107.788,90.461v428.455l-241.177,51.249c-16.35,36.245-27.165,75.594-31.314,116.851l272.49-57.908v138.768l-292.027,62.057c-16.35,36.245-27.157,75.594-31.297,116.851l305.67-64.958c24.883-5.175,46.269-19.887,60.174-40.132l56.058-83.125v-.02c5.819-8.599,9.21-18.966,9.21-30.132V500.961l107.788-22.911v220.385l346.006-73.581Z"/>
</svg>
